PathFileType	4	(X/Y/Z)	Patient4_TMGait_0pt8_01_right_41.trc.trc
DataRate	CameraRate	NumFrames	NumMarkers	Units	OrigDataRate	OrigDataStartFrame	OrigNumFrames
85.889570552147	85.889570552147	4	33	mm	85.889570552147	89	       141
Frame#	Time	Sacral			L.Shoulder			Chest			R.Shoulder			Neck			R.ASIS			L.ASIS			R.Thigh.Superior			R.Thigh.Lateral			R.Thigh.Inferior			R.Patella			L.Thigh.Superior			L.Thigh.Lateral			L.Thigh.Inferior			L.Patella			L.Shank.Superior			L.Shank.Lateral			L.Shank.Inferior			R.Shank.Superior			R.Shank.Lateral			R.Shank.Inferior			R.Heel			R.Midfoot.Superior			R.Midfoot.Lateral			R.Toe			L.Heel			L.Midfoot.Lateral			L.Midfoot.Superior			L.Toe			L.Elbow			L.Wrist			R.Elbow			R.Wrist			
		X1	Y1	Z1	X2	Y2	Z2	X3	Y3	Z3	X4	Y4	Z4	X5	Y5	Z5	X6	Y6	Z6	X7	Y7	Z7	X8	Y8	Z8	X9	Y9	Z9	X10	Y10	Z10	X11	Y11	Z11	X12	Y12	Z12	X13	Y13	Z13	X14	Y14	Z14	X15	Y15	Z15	X16	Y16	Z16	X17	Y17	Z17	X18	Y18	Z18	X19	Y19	Z19	X20	Y20	Z20	X21	Y21	Z21	X22	Y22	Z22	X23	Y23	Z23	X24	Y24	Z24	X25	Y25	Z25	X26	Y26	Z26	X27	Y27	Z27	X28	Y28	Z28	X29	Y29	Z29	X30	Y30	Z30	X31	Y31	Z31	X32	Y32	Z32	X33	Y33	Z33	

89	47.034571428571	892.071828539999	1001.715566798694	452.562087998373	1050.659593563167	1430.263664096010	269.964494319955	1168.514094094847	1361.924921553971	420.988201836968	1098.916178171642	1435.433171193297	601.439422596753	1048.154770252472	1489.171616134045	427.318470322002	1121.788622850488	931.591667511272	555.929201658827	1098.325594835389	958.809591112648	284.158177164428	1157.551603998619	726.704815740599	539.845736476636	1076.098391175822	619.249230495575	607.228416323035	1158.487070926245	557.248603317725	536.827188929648	1143.302811608279	446.372884308342	558.063081432821	1170.641414957320	763.161258239840	316.601320814117	1098.647253241892	635.061626479156	259.894909968902	1194.341131995199	569.677635573208	323.976578507633	1204.829170540203	499.439975359918	333.344251137106	1180.804103021347	424.103532333202	326.593501272761	1097.509620868358	303.752190840544	280.931232328338	1158.196222023137	197.056509330008	350.514128500256	1055.500547431406	387.319535862290	563.524902092633	927.884715427273	369.752769517442	621.776646278084	896.647227969376	263.688574837155	574.740221884488	691.036718014562	246.036634953959	547.026190043299	838.752999076748	143.133952101698	582.914899208215	730.759040865917	166.385100007075	613.960564929050	872.042238777527	26.619018150050	595.378121936796	1039.576320207773	38.446073910613	398.716371218193	1109.257204028105	36.274097509774	314.005018478241	1193.100629679723	97.979879069066	337.876960486748	1320.240255474571	46.894718647138	302.472970329209	940.250167463421	1092.449077429757	173.827921908404	941.893549093640	831.589909723522	177.317995629928	1193.418571342123	1104.796151515665	716.793360967977	1422.968684968086	1168.037636764193	637.312210732570	
90	47.046214285714	891.651084359058	1002.712686289049	450.049888629160	1052.503574437606	1431.840468051815	268.578638687955	1169.016441265510	1363.077325990474	420.445356155034	1097.924393457139	1436.083490022353	600.596359236229	1048.738979909499	1490.388033638674	426.137305168186	1121.433817188505	933.031424128864	553.936783114300	1098.350437011142	960.063289274269	282.098622114404	1163.029755811680	730.893939074771	538.265383751811	1085.248957926966	621.846381397430	606.623542285522	1169.560469785383	561.649782284948	536.206609605536	1156.860912137392	449.829297257356	557.715747461450	1168.688093243504	762.259854287001	313.605171041580	1094.336476071418	635.143930973856	258.275409564174	1189.187250553502	568.662278069798	322.241912185994	1198.713488626473	498.568929495066	331.900292558479	1174.115570135591	423.448240665829	325.409757512330	1089.827420182581	303.621287450418	280.204215044388	1149.792670853574	196.669712329728	350.056014152108	1068.208031770462	390.973833784832	563.329157072441	940.239806418886	375.980324292164	621.723457042416	907.163334234226	270.197319757860	575.324117980124	702.781059418974	259.376148153230	547.572942401975	845.895460851917	149.183378376968	583.752723610341	738.663568353218	177.365685224885	614.486439974880	873.316640698453	27.178275668564	596.446023726354	1030.185829026836	38.441184303866	398.661046804831	1099.847612906484	36.187950225294	313.954671400660	1183.821462821088	97.840936916578	337.790423616477	1310.933266177093	46.419800681619	302.386144430122	949.673939256547	1091.745669480153	168.884215620599	965.582881329785	831.095739788333	170.378375000152	1179.892663936493	1100.607813070742	714.744690818795	1414.869819451104	1147.737625229026	638.940905257586	
91	47.057857142857	891.088015783970	1003.712793850454	447.597165299713	1054.262228853365	1433.307424400603	267.286690074763	1169.408835266367	1364.111834744792	419.996530483002	1096.830969846814	1436.598684446293	599.849113393020	1049.270319782858	1491.526970500963	425.038274405675	1120.891310843986	934.481093985725	552.084263381980	1098.328356978245	961.177489888267	280.189933320932	1168.141921326096	735.379638933099	536.461393236253	1094.260775585751	624.895271845373	605.942798315662	1180.171068514153	566.627914414248	535.211573951108	1170.274590911918	453.949758354111	557.026615569443	1166.667230227237	761.387962112125	311.010354583248	1090.098377477621	635.243688827968	256.838162908305	1184.047010707051	567.668118553543	320.747770115263	1192.605146255776	497.699487264834	330.700966139756	1167.463669329391	422.814791900706	324.405856214261	1082.221570445054	303.534539779157	279.540338867162	1141.431693664551	196.296959404336	349.660402918590	1081.062222004753	395.003439747686	562.899864093050	952.961193987504	381.787594711228	621.539321103493	918.586631086502	276.201178462761	575.630014615391	715.359726174944	270.092106022937	547.876397557490	854.926562717197	154.868730507251	584.429557229247	748.416347659989	186.672685383986	614.972754344758	878.007509440831	28.602487339034	597.747516385180	1020.817646580872	38.459883421155	398.600075889089	1090.460838651436	36.122982712258	313.900790216626	1174.574327815855	97.701843671555	337.710331592446	1301.641185721399	45.937234108133	302.300900564778	959.370902353770	1091.160719062920	163.911020911231	989.911065481111	831.563254987566	163.512499841937	1166.226336205252	1096.753283672269	712.481965982590	1405.901981773304	1125.806640843226	641.007444450633	
92	47.069500000000	890.408594570502	1004.736210786302	445.192102644311	1055.935547692730	1434.690887592905	266.081608551917	1169.690140655055	1365.056645739453	419.628585797427	1095.638032780712	1437.019219558373	599.172125042089	1049.746405524898	1492.608526182928	424.008636357232	1120.151663883320	935.967398779552	550.380333032036	1098.301181794711	962.168491689538	278.455984270593	1172.851187941333	740.159113950719	534.445861368992	1103.113214544656	628.383404832907	605.176639345496	1190.301677534065	572.151031337452	533.853740166029	1183.512416663847	458.714971594718	556.051040377963	1164.625857169805	760.552318593114	308.853528103341	1085.959634291276	635.363481648502	255.600740183090	1178.940831395015	566.690963242028	319.522572064884	1186.519772134785	496.829720353470	329.784449832438	1160.862842577749	422.205639955269	323.604973298320	1074.703214910598	303.498136800158	278.959585070101	1133.110679569219	195.939898674951	349.341366294224	1094.044277825660	399.354654761946	562.291032866872	965.957254772357	387.091547778075	621.210312208122	930.912917226267	281.556933374582	575.693496333538	728.631239108427	277.929101300753	547.905829977123	865.940133635190	159.988711012686	585.003994592933	759.977485653110	194.021826938348	615.410558842106	886.373696475887	30.787682373159	599.318224159845	1011.468464925738	38.500888038296	398.535248912771	1081.096491346214	36.082905045387	313.847243059791	1165.352035197078	97.569095549518	337.642491182556	1292.359845599094	45.463212803058	302.219463086324	969.387401716530	1090.740761986197	158.923305942180	1014.772133256397	833.094380721782	156.806076786615	1152.628059983048	1093.331502666274	710.034266873555	1395.830553600554	1102.428383731597	643.488719213263	
